<?xml version="1.0" encoding="utf-8"?>
<!-- Generator: Adobe Illustrator 18.0.0, SVG Export Plug-In . SVG Version: 6.00 Build 0)  -->
<!DOCTYPE svg PUBLIC "-//W3C//DTD SVG 1.1//EN" "http://www.w3.org/Graphics/SVG/1.1/DTD/svg11.dtd">
<svg version="1.1" id="Layer_1" xmlns="http://www.w3.org/2000/svg" xmlns:xlink="http://www.w3.org/1999/xlink" x="0px" y="0px"
	 viewBox="0 0 125.5 21.4" enable-background="new 0 0 125.5 21.4" xml:space="preserve">
<g>
	<path d="M6.5,61c1.6,0,3.1,0.9,3.8,2.4l1.7-0.8c-1-2.1-3.1-3.5-5.5-3.5c-3.3,0-6.1,2.7-6.1,6.1l0,1.5c0,3.3,2.7,6.1,6.1,6.1
		c2.4,0,4.5-1.4,5.5-3.5l-1.7-0.8C9.6,70,8.1,71,6.5,71c-2.3,0-4.2-1.9-4.2-4.2l0-1.5C2.3,63,4.2,61,6.5,61z"/>
	<path d="M17.1,60.9l0-1.7h-1.8l0,13.6h1.8l0-7.5c0-2.3,1.9-4.2,4.2-4.2h0.9v-1.8h-0.9C19.8,59.2,18.3,59.8,17.1,60.9z"/>
	<path d="M29.4,59.2c-3.3,0-6.1,2.7-6.1,6.1l0,1.5c0,3.3,2.7,6.1,6.1,6.1c2.4,0,4.5-1.4,5.5-3.5l-1.7-0.8C32.5,70,31.1,71,29.4,71
		c-2.3,0-4.1-1.8-4.2-4.1l10.3,0v-1.6C35.5,61.9,32.8,59.2,29.4,59.2z M25.2,65.1c0.1-2.2,2-4,4.2-4c2.3,0,4.1,1.8,4.2,4H25.2z"/>
	<path d="M44.9,59.2h-1.5c-2.3,0-4.3,1.4-5,3.5l1.7,0.6C40.6,62,42,61,43.4,61h1.5c1.7,0,3.5,0.7,3.5,2.8c0,1.1-1.1,1.3-2,1.3H42
		c-2.1,0-3.8,1.7-3.8,3.9c0,2.1,1.7,3.8,3.8,3.8h3c1.3,0,2.5-0.5,3.5-1.3v1.3h1.8l0-9C50.2,60.7,47.7,59.2,44.9,59.2z M48.4,67.5
		c0,1.9-1.6,3.5-3.5,3.5h-3c-1.1,0-2-0.9-2-2c0-1.1,0.9-2,2-2h4.4c0.7,0,1.4-0.1,2-0.3V67.5z"/>
	<path d="M57.1,53.3h-1.8l0,5.9l-3.4,0l0,1.8l3.4,0l0,7.9c0,2.1,1.7,3.8,3.8,3.8h1.4V71h-1.4c-1.1,0-2-0.9-2-2l0-7.9h3.4l0-1.8h-3.4
		L57.1,53.3z"/>
	<rect x="63.6" y="59.2" width="1.8" height="13.6"/>
	<rect x="63.6" y="53.3" width="1.8" height="3"/>
	<polygon points="74.5,70.5 69.5,59.2 67.5,59.2 73.5,72.8 75.5,72.8 81.5,59.2 79.5,59.2 	"/>
	<path d="M88.8,59.2c-3.3,0-6.1,2.7-6.1,6.1v1.5c0,3.3,2.7,6.1,6.1,6.1c2.4,0,4.5-1.4,5.5-3.5l-1.7-0.8C92,70,90.5,71,88.8,71
		c-2.3,0-4.1-1.8-4.2-4.1h10.3v-1.6C94.9,61.9,92.2,59.2,88.8,59.2z M84.6,65.1c0.1-2.2,2-4,4.2-4c2.3,0,4.1,1.8,4.2,4L84.6,65.1z"
		/>
	<path d="M105,65.3l-2.7-0.4c-1.4-0.2-3.2-0.5-3.2-1.9c0-1.1,0.9-2,2-2h3.1c1.5,0,2.8,1,3.3,2.3l1.7-0.6c-0.7-2.1-2.7-3.6-5-3.6
		h-3.1c-2.1,0-3.8,1.7-3.8,3.9c0,2.7,2.7,3.3,4.6,3.6l2.9,0.4c1.4,0.2,2.8,0.5,2.8,1.8c0,1.1-0.9,2-2,2h-3.1c-1.5,0-2.8-1-3.3-2.4
		l-1.7,0.6c0.7,2.1,2.7,3.6,5,3.6h3.1c2.1,0,3.8-1.7,3.8-3.9C109.4,66.4,107.1,65.6,105,65.3z"/>
	<path d="M118.2,59.2c-3.3,0-6.1,2.7-6.1,6.1v1.5c0,3.3,2.7,6.1,6.1,6.1c2.4,0,4.5-1.4,5.5-3.5l-1.7-0.8c-0.7,1.5-2.2,2.4-3.8,2.4
		c-2.3,0-4.1-1.8-4.2-4.1l10.3,0v-1.6C124.2,61.9,121.5,59.2,118.2,59.2z M114,65.1c0.1-2.2,2-4,4.2-4c2.3,0,4.1,1.8,4.2,4L114,65.1
		z"/>
	<path d="M134.2,61v-1.8h-3.4v-5.9h-1.8v5.9h-3.4V61h3.4l0,7.9c0,2.1,1.7,3.8,3.8,3.8l1.4,0V71h-1.4c-1.1,0-2-0.9-2-2V61L134.2,61z"
		/>
</g>
<g>
	<path d="M11.7,16.9c-0.4,2.7-2.6,3.7-5.2,3.7c-3.4,0-5.8-2.5-5.8-7.1c0-4.5,2.4-7.2,6.1-7.2c2.8,0,4.6,1.4,4.8,4.2l-2.1,0.3
		C9.1,9.1,8.1,8.2,6.6,8.2c-2.5,0-3.8,2.2-3.8,5.4c0,3,1.5,5.2,3.9,5.2c1.6,0,2.6-0.7,3.1-2.3L11.7,16.9z"/>
	<path d="M21.5,8.9c-0.3-0.1-0.7-0.1-1.1-0.1c-2.1,0-3.9,1.7-3.9,4.3v7.1h-2.2V6.7h1.9l0.3,3.6c0.5-2.4,2.3-4.1,5.2-3.9L21.5,8.9z"
		/>
	<path d="M32.1,16.5l2,0.4c-0.5,2.8-2.7,3.7-5.3,3.7c-3.5,0-5.9-2.5-5.9-7.1c0-4.5,2.4-7.2,6.1-7.2c3.4,0,5.3,2.4,5.3,5.7
		c0,0.8-0.1,1.5-0.3,1.9H25c0.1,2.9,1.5,4.9,3.9,4.9C30.6,18.8,31.6,18.2,32.1,16.5z M32,12.2c0-0.2,0-0.4,0-0.6
		c0-1.9-1.3-3.4-3.2-3.4c-2.1,0-3.4,1.4-3.7,4H32z"/>
	<path d="M46.4,17.3c0,1.1,0.5,1.3,1,1.3c0.3,0,0.5,0,0.7-0.1v1.8c-0.3,0.1-0.7,0.2-1.2,0.2c-1.5,0-2.5-0.7-2.6-2.2
		c-0.7,1.7-2.4,2.4-4,2.4c-2.4,0-4.1-1.4-4.1-3.6c0-3,2.3-4.8,8-4.5v-1.8c0-1.8-1.2-2.5-2.7-2.5c-1.6,0-2.6,0.8-2.7,2.3l-2.1-0.3
		c0.2-2.9,2.8-3.8,5.1-3.8c2.4,0,4.7,0.9,4.7,4.1V17.3z M44.2,14c-3.9-0.1-5.7,0.8-5.7,2.6c0,1.2,0.8,2.2,2.4,2.2
		c1.6,0,3.4-1,3.4-2.6V14z"/>
	<path d="M57.2,19.8c-0.8,0.5-1.9,0.8-3,0.8c-2.4,0-3.7-1.3-3.7-3.6V8.5h-2V6.7h2V3.8l2.3-0.3v3.2h4v1.8h-4.1v8.1
		c0,1.5,0.7,2.1,1.8,2.1c0.9,0,1.5-0.2,2.2-0.7L57.2,19.8z"/>
	<path d="M60.5,0.6c0.9,0,1.6,0.7,1.6,1.6c0,0.9-0.7,1.6-1.6,1.6c-0.9,0-1.6-0.7-1.6-1.6C58.9,1.4,59.6,0.6,60.5,0.6z M61.6,6.7
		v13.6h-2.2V6.7H61.6z"/>
	<path d="M63.7,6.7h2.5l2.5,7.9c0.9,2.7,1.1,4.3,1.1,4.3h0.1c0,0,0.2-1.6,1-4.3l2.4-7.9h2.4l-4.5,13.6h-2.7L63.7,6.7z"/>
	<path d="M85.7,16.5l2,0.4c-0.5,2.8-2.7,3.7-5.3,3.7c-3.5,0-5.9-2.5-5.9-7.1c0-4.5,2.4-7.2,6.1-7.2c3.4,0,5.3,2.4,5.3,5.7
		c0,0.8-0.1,1.5-0.3,1.9h-8.9c0.1,2.9,1.5,4.9,3.9,4.9C84.2,18.8,85.3,18.2,85.7,16.5z M85.6,12.2c0-0.2,0-0.4,0-0.6
		c0-1.9-1.3-3.4-3.2-3.4c-2.1,0-3.4,1.4-3.7,4H85.6z"/>
	<path d="M91.9,15.6c0.4,2.3,1.8,3.2,3.7,3.2c2,0,3.4-0.9,3.4-2.7c0-1.6-0.8-2.5-3.8-3.6c-2.3-0.9-4.8-1.8-4.8-5.1
		c0-3.5,2.7-4.8,5.3-4.8c3.1,0,5.4,1.3,5.6,4.6L99,7.5c-0.2-2-1.5-3.1-3.4-3.1c-1.8,0-3.1,1-3.1,2.8c0,1.9,1.5,2.5,4.1,3.5
		c2.4,0.9,4.7,1.9,4.7,5.1c0,3.3-2.6,4.8-5.8,4.8c-3.4,0-5.4-1.4-5.8-4.6L91.9,15.6z"/>
	<path d="M112.6,16.5l2,0.4c-0.5,2.8-2.7,3.7-5.3,3.7c-3.5,0-5.9-2.5-5.9-7.1c0-4.5,2.4-7.2,6.1-7.2c3.4,0,5.3,2.4,5.3,5.7
		c0,0.8-0.1,1.5-0.3,1.9h-8.9c0.1,2.9,1.5,4.9,3.9,4.9C111,18.8,112.1,18.2,112.6,16.5z M112.4,12.2c0-0.2,0-0.4,0-0.6
		c0-1.9-1.3-3.4-3.2-3.4c-2.1,0-3.4,1.4-3.7,4H112.4z"/>
	<path d="M124.6,19.8c-0.8,0.5-1.9,0.8-3,0.8c-2.4,0-3.7-1.3-3.7-3.6V8.5h-2V6.7h2V3.8l2.3-0.3v3.2h4v1.8h-4.1v8.1
		c0,1.5,0.7,2.1,1.8,2.1c0.9,0,1.5-0.2,2.2-0.7L124.6,19.8z"/>
</g>
</svg>
