<?xml version="1.0" encoding="utf-8"?>
<!-- Generator: Adobe Illustrator 18.0.0, SVG Export Plug-In . SVG Version: 6.00 Build 0)  -->
<!DOCTYPE svg PUBLIC "-//W3C//DTD SVG 1.1//EN" "http://www.w3.org/Graphics/SVG/1.1/DTD/svg11.dtd">
<svg version="1.1" id="Layer_1" xmlns="http://www.w3.org/2000/svg" xmlns:xlink="http://www.w3.org/1999/xlink" x="0px" y="0px"
	 viewBox="0 0 125.5 21.4" enable-background="new 0 0 125.5 21.4" xml:space="preserve">
<g>
	<path fill="#FFFFFF" d="M11.7,16.9c-0.4,2.7-2.6,3.7-5.2,3.7c-3.4,0-5.8-2.5-5.8-7.1c0-4.5,2.4-7.2,6.1-7.2c2.8,0,4.6,1.4,4.8,4.2
		l-2.1,0.3C9.1,9.1,8.1,8.2,6.6,8.2c-2.5,0-3.8,2.2-3.8,5.4c0,3,1.5,5.2,3.9,5.2c1.6,0,2.6-0.7,3.1-2.3L11.7,16.9z"/>
	<path fill="#FFFFFF" d="M21.5,8.9c-0.3-0.1-0.7-0.1-1.1-0.1c-2.1,0-3.9,1.7-3.9,4.3v7.1h-2.2V6.7h1.9l0.3,3.6
		c0.5-2.4,2.3-4.1,5.2-3.9L21.5,8.9z"/>
	<path fill="#FFFFFF" d="M32.1,16.5l2,0.4c-0.5,2.8-2.7,3.7-5.3,3.7c-3.5,0-5.9-2.5-5.9-7.1c0-4.5,2.4-7.2,6.1-7.2
		c3.4,0,5.3,2.4,5.3,5.7c0,0.8-0.1,1.5-0.3,1.9H25c0.1,2.9,1.5,4.9,3.9,4.9C30.6,18.8,31.6,18.2,32.1,16.5z M32,12.2
		c0-0.2,0-0.4,0-0.6c0-1.9-1.3-3.4-3.2-3.4c-2.1,0-3.4,1.4-3.7,4H32z"/>
	<path fill="#FFFFFF" d="M46.4,17.3c0,1.1,0.5,1.3,1,1.3c0.3,0,0.5,0,0.7-0.1v1.8c-0.3,0.1-0.7,0.2-1.2,0.2c-1.5,0-2.5-0.7-2.6-2.2
		c-0.7,1.7-2.4,2.4-4,2.4c-2.4,0-4.1-1.4-4.1-3.6c0-3,2.3-4.8,8-4.5v-1.8c0-1.8-1.2-2.5-2.7-2.5c-1.6,0-2.6,0.8-2.7,2.3l-2.1-0.3
		c0.2-2.9,2.8-3.8,5.1-3.8c2.4,0,4.7,0.9,4.7,4.1V17.3z M44.2,14c-3.9-0.1-5.7,0.8-5.7,2.6c0,1.2,0.8,2.2,2.4,2.2
		c1.6,0,3.4-1,3.4-2.6V14z"/>
	<path fill="#FFFFFF" d="M57.2,19.8c-0.8,0.5-1.9,0.8-3,0.8c-2.4,0-3.7-1.3-3.7-3.6V8.5h-2V6.7h2V3.8l2.3-0.3v3.2h4v1.8h-4.1v8.1
		c0,1.5,0.7,2.1,1.8,2.1c0.9,0,1.5-0.2,2.2-0.7L57.2,19.8z"/>
	<path fill="#FFFFFF" d="M60.5,0.6c0.9,0,1.6,0.7,1.6,1.6c0,0.9-0.7,1.6-1.6,1.6c-0.9,0-1.6-0.7-1.6-1.6C58.9,1.4,59.6,0.6,60.5,0.6
		z M61.6,6.7v13.6h-2.2V6.7H61.6z"/>
	<path fill="#FFFFFF" d="M63.7,6.7h2.5l2.5,7.9c0.9,2.7,1.1,4.3,1.1,4.3h0.1c0,0,0.2-1.6,1-4.3l2.4-7.9h2.4l-4.5,13.6h-2.7L63.7,6.7
		z"/>
	<path fill="#FFFFFF" d="M85.7,16.5l2,0.4c-0.5,2.8-2.7,3.7-5.3,3.7c-3.5,0-5.9-2.5-5.9-7.1c0-4.5,2.4-7.2,6.1-7.2
		c3.4,0,5.3,2.4,5.3,5.7c0,0.8-0.1,1.5-0.3,1.9h-8.9c0.1,2.9,1.5,4.9,3.9,4.9C84.2,18.8,85.3,18.2,85.7,16.5z M85.6,12.2
		c0-0.2,0-0.4,0-0.6c0-1.9-1.3-3.4-3.2-3.4c-2.1,0-3.4,1.4-3.7,4H85.6z"/>
	<path fill="#FFFFFF" d="M91.9,15.6c0.4,2.3,1.8,3.2,3.7,3.2c2,0,3.4-0.9,3.4-2.7c0-1.6-0.8-2.5-3.8-3.6c-2.3-0.9-4.8-1.8-4.8-5.1
		c0-3.5,2.7-4.8,5.3-4.8c3.1,0,5.4,1.3,5.6,4.6L99,7.5c-0.2-2-1.5-3.1-3.4-3.1c-1.8,0-3.1,1-3.1,2.8c0,1.9,1.5,2.5,4.1,3.5
		c2.4,0.9,4.7,1.9,4.7,5.1c0,3.3-2.6,4.8-5.8,4.8c-3.4,0-5.4-1.4-5.8-4.6L91.9,15.6z"/>
	<path fill="#FFFFFF" d="M112.6,16.5l2,0.4c-0.5,2.8-2.7,3.7-5.3,3.7c-3.5,0-5.9-2.5-5.9-7.1c0-4.5,2.4-7.2,6.1-7.2
		c3.4,0,5.3,2.4,5.3,5.7c0,0.8-0.1,1.5-0.3,1.9h-8.9c0.1,2.9,1.5,4.9,3.9,4.9C111,18.8,112.1,18.2,112.6,16.5z M112.4,12.2
		c0-0.2,0-0.4,0-0.6c0-1.9-1.3-3.4-3.2-3.4c-2.1,0-3.4,1.4-3.7,4H112.4z"/>
	<path fill="#FFFFFF" d="M124.6,19.8c-0.8,0.5-1.9,0.8-3,0.8c-2.4,0-3.7-1.3-3.7-3.6V8.5h-2V6.7h2V3.8l2.3-0.3v3.2h4v1.8h-4.1v8.1
		c0,1.5,0.7,2.1,1.8,2.1c0.9,0,1.5-0.2,2.2-0.7L124.6,19.8z"/>
</g>
</svg>
