<?xml version="1.0" encoding="utf-8"?>
<!-- Generator: Adobe Illustrator 18.0.0, SVG Export Plug-In . SVG Version: 6.00 Build 0)  -->
<!DOCTYPE svg PUBLIC "-//W3C//DTD SVG 1.1//EN" "http://www.w3.org/Graphics/SVG/1.1/DTD/svg11.dtd">
<svg version="1.1" id="Layer_1" xmlns="http://www.w3.org/2000/svg" xmlns:xlink="http://www.w3.org/1999/xlink" x="0px" y="0px"
	 viewBox="0 0 50 50" enable-background="new 0 0 50 50" xml:space="preserve">
<path fill="#74EDD4" d="M45.7,44.4l-7.6-9.6c3.9-3.7,6.3-8.8,6.3-14.6c0-11.1-9-20.1-20.1-20.1c-11.1,0-20.1,9-20.1,20.1
	c0,11.1,9,20.1,20.1,20.1c2.9,0,5.7-0.6,8.2-1.8l8,10c0.7,0.8,1.6,1.3,2.6,1.3c0.7,0,1.5-0.2,2.1-0.7C46.6,47.9,46.8,45.8,45.7,44.4
	z M10.9,20.2c0-7.4,6-13.4,13.4-13.4s13.4,6,13.4,13.4s-6,13.4-13.4,13.4S10.9,27.6,10.9,20.2z"/>
</svg>
